<?xml version="1.0" standalone="no"?>
<!DOCTYPE svg PUBLIC "-//W3C//DTD SVG 20010904//EN"
 "http://www.w3.org/TR/2001/REC-SVG-20010904/DTD/svg10.dtd">
<svg version="1.0" xmlns="http://www.w3.org/2000/svg"
 width="576.000000pt" height="576.000000pt" viewBox="0 0 576.000000 576.000000"
 preserveAspectRatio="xMidYMid meet">
<metadata>
Created by potrace 1.11, written by Peter Selinger 2001-2013
</metadata>
<g transform="translate(0.000000,576.000000) scale(0.100000,-0.100000)"
fill="#000000" stroke="none">
<path d="M2795 5432 c-32 -7 -118 -44 -141 -61 -26 -20 -128 -109 -229 -200
-11 -10 -45 -39 -75 -66 -126 -110 -184 -161 -210 -185 -15 -14 -53 -47 -85
-75 -31 -27 -70 -61 -85 -75 -15 -14 -56 -50 -90 -80 -35 -30 -68 -59 -74 -65
-47 -42 -176 -156 -200 -176 -15 -13 -38 -33 -50 -44 -12 -11 -55 -49 -96 -85
-40 -36 -78 -70 -84 -75 -6 -6 -42 -37 -81 -70 -38 -33 -74 -65 -80 -71 -5 -7
-35 -33 -65 -59 -30 -26 -86 -75 -124 -109 -87 -76 -101 -89 -172 -151 -64
-57 -77 -68 -165 -147 -35 -31 -73 -65 -85 -75 -85 -73 -153 -133 -182 -160
-18 -18 -45 -42 -59 -53 -14 -11 -47 -39 -73 -62 -26 -24 -65 -58 -86 -77
-131 -114 -174 -157 -188 -186 -31 -64 -15 -131 45 -196 19 -20 61 -67 94
-104 135 -151 137 -153 205 -161 42 -5 103 15 131 44 18 19 48 46 169 151 47
41 92 81 102 90 9 9 42 39 74 66 31 28 68 60 82 73 14 12 47 41 74 64 27 23
68 59 91 81 22 21 59 53 80 70 21 18 53 46 71 62 18 17 55 49 82 73 27 24 76
67 108 95 33 29 71 62 85 75 14 12 37 33 51 45 14 13 79 70 145 128 66 57 129
113 141 124 12 11 48 43 79 70 32 28 67 59 79 70 11 11 53 47 91 80 38 33 82
71 96 85 26 24 95 85 193 169 27 23 54 48 61 54 7 7 41 37 76 67 35 30 76 67
91 81 15 14 53 47 85 75 31 27 66 58 77 68 17 18 88 44 111 41 39 -4 75 -19
100 -41 28 -23 109 -95 175 -154 15 -14 54 -48 86 -76 33 -28 84 -73 114 -100
30 -26 63 -55 73 -64 10 -8 31 -26 45 -40 15 -14 56 -50 91 -80 35 -30 73 -64
85 -75 22 -19 136 -120 180 -158 39 -34 138 -122 166 -148 33 -30 141 -125
214 -188 28 -24 56 -48 61 -55 6 -6 35 -32 65 -58 30 -26 67 -57 81 -70 14
-13 55 -48 89 -78 35 -30 73 -64 84 -75 12 -11 48 -42 80 -70 33 -27 73 -63
91 -80 17 -16 60 -55 95 -85 35 -30 71 -62 80 -70 10 -8 43 -37 75 -65 32 -27
78 -69 103 -93 25 -24 51 -46 58 -50 8 -4 33 -26 56 -48 24 -22 55 -48 70 -58
39 -26 110 -31 150 -11 32 16 49 33 153 150 28 31 69 77 92 103 52 57 67 99
58 159 -7 49 -41 88 -180 208 -39 33 -88 76 -110 96 -22 20 -56 50 -75 65 -19
16 -46 40 -60 54 -15 14 -55 50 -90 80 -35 30 -73 64 -86 75 -12 11 -52 47
-90 80 -37 33 -72 65 -78 70 -6 6 -45 39 -86 75 -41 36 -80 70 -86 75 -6 6
-41 37 -79 70 -37 33 -80 71 -95 85 -15 14 -40 36 -56 49 -16 14 -70 61 -119
105 -50 45 -122 108 -159 141 -38 33 -80 70 -94 82 -20 18 -95 85 -156 138 -6
6 -47 42 -91 81 -44 39 -95 84 -114 100 -19 16 -41 36 -50 44 -9 9 -52 47 -96
85 -44 39 -82 72 -85 75 -3 3 -59 52 -125 110 -66 58 -129 114 -140 125 -12
11 -45 40 -74 65 -30 25 -68 59 -87 77 -18 17 -35 29 -38 25 -3 -3 -6 0 -6 6
0 18 -99 78 -156 95 -46 14 -155 19 -199 9z"/>
<path d="M2838 4254 c-24 -20 -48 -41 -53 -47 -6 -7 -44 -41 -85 -77 -97 -84
-109 -94 -146 -127 -37 -33 -140 -124 -170 -150 -12 -10 -50 -44 -85 -75 -35
-31 -74 -65 -87 -76 -35 -31 -164 -145 -182 -162 -9 -8 -49 -44 -90 -80 -41
-35 -82 -71 -91 -80 -9 -8 -42 -37 -74 -65 -32 -27 -63 -54 -69 -60 -6 -5 -65
-57 -131 -115 -66 -58 -129 -114 -141 -125 -11 -11 -47 -42 -79 -70 -32 -27
-75 -65 -94 -83 -20 -18 -53 -47 -75 -65 -21 -18 -50 -43 -65 -57 -14 -14 -82
-74 -151 -135 -69 -60 -130 -114 -136 -119 -6 -6 -37 -33 -69 -61 -32 -27 -63
-55 -69 -61 -6 -6 -22 -16 -34 -23 -22 -12 -23 -17 -20 -102 2 -49 1 -89 -2
-89 -3 0 -4 -71 -3 -157 2 -140 3 -231 2 -285 0 -10 0 -34 0 -53 0 -19 0 -41
0 -47 0 -7 0 -38 0 -68 0 -30 1 -63 0 -72 0 -10 0 -34 0 -53 0 -19 0 -41 0
-47 0 -7 0 -38 0 -68 1 -30 0 -83 -1 -118 -2 -34 -1 -62 2 -62 5 0 4 -24 -3
-183 -1 -31 0 -57 3 -57 4 0 4 -107 -1 -120 -1 -3 -1 -8 -1 -11 1 -3 1 -48 1
-100 1 -114 2 -167 6 -194 1 -11 3 -26 4 -34 2 -24 79 -90 113 -96 18 -3 335
-5 704 -3 l671 3 36 28 c65 50 72 76 65 280 -2 53 -1 97 2 97 3 0 4 87 2 192
-2 106 -3 209 -2 228 1 19 2 42 1 50 -2 34 0 124 4 130 2 3 0 12 -4 18 -4 7
-5 33 -1 57 4 25 5 47 3 49 -5 5 -5 184 0 291 2 53 9 79 26 105 43 64 62 69
305 67 119 -1 216 1 216 4 0 3 12 4 28 2 59 -8 292 -8 292 0 0 5 4 6 8 3 5 -3
44 -5 88 -5 184 -1 210 -4 243 -29 44 -33 61 -66 67 -126 7 -80 10 -256 4
-256 -4 0 -4 -76 -1 -365 1 -27 2 -66 2 -85 1 -19 1 -39 0 -45 -4 -70 -5 -135
-1 -135 4 0 4 -107 -1 -120 -1 -3 -1 -8 -1 -11 1 -3 1 -48 1 -100 1 -114 2
-167 6 -194 1 -11 3 -26 4 -34 2 -24 79 -90 113 -96 18 -3 335 -5 704 -3 l671
3 36 28 c53 40 70 81 67 157 -4 109 -4 220 0 220 5 0 3 247 -3 292 -2 16 -1
28 2 28 6 0 4 243 -2 293 -2 15 -1 27 2 27 6 0 4 243 -2 292 -2 16 -1 28 2 28
6 0 4 243 -2 292 -2 16 -1 28 2 28 3 0 5 71 3 157 -3 151 -9 183 -36 183 -6 0
-36 24 -67 53 -31 28 -85 77 -120 107 -35 30 -73 64 -85 75 -12 11 -46 40 -74
64 -29 25 -58 50 -64 56 -6 6 -51 46 -101 89 -49 44 -102 91 -117 105 -15 14
-33 31 -40 36 -10 8 -119 103 -194 170 -6 6 -39 35 -74 65 -34 30 -72 64 -84
75 -12 11 -51 45 -86 75 -35 30 -74 64 -86 75 -12 11 -50 45 -85 75 -34 30
-72 64 -84 75 -19 19 -132 118 -199 175 -16 14 -52 46 -80 71 -28 25 -69 61
-91 80 -22 19 -47 41 -55 49 -8 9 -42 38 -74 65 -33 28 -74 64 -92 80 -33 31
-121 109 -164 145 -14 12 -39 35 -57 50 l-32 29 -43 -35z"/>
</g>
</svg>
